<svg id="listen_svg" viewBox="0 0 2cm 2cm"><g stroke="none" stroke-width="1" fill="none" fill-rule="evenodd"><g fill="#59CBB7"><path d="M0.978009259,0 C1.03819475,0 1.09587164,0.00733847847 1.15104167,0.0220156556 C1.2062117,0.0366928327 1.2613809,0.0538159491 1.31655093,0.0733855186 C1.37172095,0.0929550881 1.42438247,0.117416683 1.47453704,0.146771037 L12.5486111,6.7074364 C12.6388893,6.75636032 12.7191355,6.82240663 12.7893519,6.9055773 C12.8595683,6.98874797 12.9122298,7.08170203 12.947338,7.18444227 C12.9824462,7.28718251 13,7.39236737 13,7.5 C13,7.85225225 12.8495385,8.11643748 12.5486111,8.2925636 L1.45949074,14.853229 C1.38927434,14.9021529 1.31153592,14.9388453 1.22627315,14.9633072 C1.14101038,14.9877692 1.05324119,15 0.962962963,15 C0.882715648,15 0.802469537,14.9902154 0.722222222,14.9706458 C0.641974907,14.9510762 0.566744178,14.9217223 0.496527778,14.8825832 C0.165507604,14.6966723 0,14.4227024 0,14.0606654 L0.0150462963,0.939334638 C0.0150462963,0.577297603 0.1805539,0.30332774 0.511574074,0.11741683 C0.652006875,0.0391385519 0.807483715,0 0.978009259,0 Z"></path></g></g></svg>