<?xml version="1.0" encoding="UTF-8" standalone="no"?>
<svg
   xmlns:dc="http://purl.org/dc/elements/1.1/"
   xmlns:cc="http://creativecommons.org/ns#"
   xmlns:rdf="http://www.w3.org/1999/02/22-rdf-syntax-ns#"
   xmlns:svg="http://www.w3.org/2000/svg"
   xmlns="http://www.w3.org/2000/svg"
   xmlns:sodipodi="http://sodipodi.sourceforge.net/DTD/sodipodi-0.dtd"
   xmlns:inkscape="http://www.inkscape.org/namespaces/inkscape"
   id="speak_svg"
   viewBox="0 0 2cm 2cm"
   version="1.1"
   sodipodi:docname="parla.svg"
   inkscape:version="0.92.3 (2405546, 2018-03-11)">
  <metadata
     id="metadata13">
    <rdf:RDF>
      <cc:Work
         rdf:about="">
        <dc:format>image/svg+xml</dc:format>
        <dc:type
           rdf:resource="http://purl.org/dc/dcmitype/StillImage" />
      </cc:Work>
    </rdf:RDF>
  </metadata>
  <defs
     id="defs11">
    <filter
       inkscape:collect="always"
       style="color-interpolation-filters:sRGB"
       id="filter4527"
       x="-0.029999679"
       width="1.0599994"
       y="-0.020000143"
       height="1.0400003">
      <feGaussianBlur
         inkscape:collect="always"
         stdDeviation="0.233335"
         id="feGaussianBlur4529" />
    </filter>
  </defs>
  <sodipodi:namedview
     pagecolor="#ffffff"
     bordercolor="#666666"
     borderopacity="1"
     objecttolerance="10"
     gridtolerance="10"
     guidetolerance="10"
     inkscape:pageopacity="0"
     inkscape:pageshadow="2"
     inkscape:window-width="1366"
     inkscape:window-height="705"
     id="namedview9"
     showgrid="false"
     inkscape:zoom="1.668772"
     inkscape:cx="-1.9449032"
     inkscape:cy="51.731082"
     inkscape:window-x="0"
     inkscape:window-y="30"
     inkscape:window-maximized="1"
     inkscape:current-layer="speak_svg" />
  <g
     id="g6"
     stroke-width="1"
     stroke="none"
     fill-rule="evenodd"
     fill="none"
     style="fill:#ff4f5e;fill-opacity:1;opacity:0.99;filter:url(#filter4527);stroke:#ff4f5e;stroke-opacity:1"
     inkscape:export-xdpi="989.7403"
     inkscape:export-ydpi="989.7403">
    <g
       id="g4"
       fill="#FF4F5E"
       style="fill:#ff4f5e;fill-opacity:1;stroke:#ff4f5e;stroke-opacity:1">
      <path
         d="M9.333 18.667A4.68 4.68 0 0 0 14 14V4.667A4.68 4.68 0 0 0 9.333 0a4.68 4.68 0 0 0-4.666 4.667V14a4.68 4.68 0 0 0 4.666 4.667zM7 4.667a2.34 2.34 0 0 1 2.333-2.334 2.34 2.34 0 0 1 2.334 2.334V14a2.34 2.34 0 0 1-2.334 2.333A2.34 2.34 0 0 1 7 14V4.667zm11.667 7V14c0 4.783-3.617 8.633-8.167 9.217v2.45H14c.7 0 1.167.466 1.167 1.166S14.7 28 14 28H4.667c-.7 0-1.167-.467-1.167-1.167s.467-1.166 1.167-1.166h3.5v-2.45C3.617 22.633 0 18.667 0 14v-2.333c0-.7.467-1.167 1.167-1.167s1.166.467 1.166 1.167V14c0 3.85 3.15 7 7 7s7-3.15 7-7v-2.333c0-.7.467-1.167 1.167-1.167s1.167.467 1.167 1.167z"
         id="path2"
         style="fill:#ff4f5e;fill-opacity:1;stroke:#ff4f5e;stroke-opacity:1" />
    </g>
  </g>
</svg>
